<svg width="662.000000" height="51.480469" viewBox="0 0 662 51.4805" fill="none" xmlns="http://www.w3.org/2000/svg" xmlns:xlink="http://www.w3.org/1999/xlink">
	<desc>
			Created with Pixso.
	</desc>
	<defs>
		<linearGradient id="paint_linear_64_796_0" x1="-36.482269" y1="74.000000" x2="718.954468" y2="74.000000" gradientUnits="userSpaceOnUse">
			<stop stop-color="#D3C000"/>
			<stop offset="0.465690" stop-color="#464646"/>
			<stop offset="1.000000" stop-color="#D7007C"/>
		</linearGradient>
	</defs>
	<mask id="mask64_795" mask-type="alpha" maskUnits="userSpaceOnUse" x="0.000000" y="0.000000" width="662.000000" height="48.000000">
		<path id="[Linked] кино кино кино кино кино" d="M102.103 49.7113Q104.451 51.3867 107.994 51.3867Q110.972 51.3867 113.254 50.1268Q113.433 50.0282 113.608 49.9219Q114.466 49.3983 115.223 48.755Q116.584 47.5984 117.615 46.0547Q117.655 45.9952 117.694 45.9355Q119.241 43.5801 120.041 40.7344Q120.861 37.8047 120.861 34.875Q120.861 30.8732 118.933 28.3402Q118.642 27.9581 118.307 27.6094Q117.814 27.0921 117.248 26.675Q114.89 24.9375 111.252 24.9375Q108.505 24.9375 106.315 26.0415Q105.982 26.2092 105.662 26.4023Q104.698 26.9844 103.864 27.7145Q102.599 28.8217 101.631 30.2695Q100.026 32.6602 99.2052 35.5898Q98.5686 37.8964 98.4332 40.2321Q98.3966 40.863 98.3966 41.4961Q98.3966 45.3604 100.241 47.8689Q100.572 48.3196 100.963 48.7266Q101.493 49.2756 102.103 49.7113ZM234.595 49.7113Q236.943 51.3867 240.486 51.3867Q243.464 51.3867 245.746 50.1268Q245.925 50.0282 246.1 49.9219Q246.958 49.3983 247.715 48.755Q249.076 47.5984 250.107 46.0547Q250.147 45.9952 250.186 45.9355Q251.733 43.5801 252.533 40.7344Q253.353 37.8047 253.353 34.875Q253.353 30.8732 251.425 28.3402Q251.134 27.9581 250.799 27.6094Q250.306 27.0921 249.74 26.675Q247.382 24.9375 243.744 24.9375Q240.997 24.9375 238.807 26.0415Q238.474 26.2092 238.154 26.4023Q237.19 26.9844 236.356 27.7145Q235.09 28.8217 234.123 30.2695Q232.517 32.6602 231.697 35.5898Q231.061 37.8964 230.925 40.2321Q230.889 40.863 230.889 41.4961Q230.889 45.3604 232.733 47.8689Q233.064 48.3196 233.455 48.7266Q233.985 49.2756 234.595 49.7113ZM367.087 49.7113Q369.435 51.3867 372.978 51.3867Q375.956 51.3867 378.238 50.1268Q378.417 50.0282 378.591 49.9219Q379.45 49.3983 380.207 48.755Q381.568 47.5984 382.599 46.0547Q382.639 45.9952 382.678 45.9355Q384.225 43.5801 385.025 40.7344Q385.845 37.8047 385.845 34.875Q385.845 30.8732 383.917 28.3402Q383.626 27.9581 383.291 27.6094Q382.798 27.0921 382.232 26.675Q379.874 24.9375 376.236 24.9375Q373.489 24.9375 371.299 26.0415Q370.966 26.2092 370.646 26.4023Q369.682 26.9844 368.848 27.7145Q367.582 28.8217 366.615 30.2695Q365.009 32.6602 364.189 35.5898Q363.553 37.8964 363.417 40.2321Q363.381 40.863 363.381 41.4961Q363.381 45.3604 365.225 47.8689Q365.556 48.3196 365.947 48.7266Q366.477 49.2756 367.087 49.7113ZM499.579 49.7113Q501.927 51.3867 505.47 51.3867Q508.448 51.3867 510.73 50.1268Q510.909 50.0282 511.083 49.9219Q511.942 49.3983 512.699 48.755Q514.06 47.5984 515.091 46.0547Q515.131 45.9952 515.17 45.9355Q516.717 43.5801 517.517 40.7344Q518.337 37.8047 518.337 34.875Q518.337 30.8732 516.409 28.3402Q516.118 27.9581 515.783 27.6094Q515.29 27.0921 514.724 26.675Q512.366 24.9375 508.728 24.9375Q505.981 24.9375 503.791 26.0415Q503.458 26.2092 503.138 26.4023Q502.174 26.9844 501.34 27.7145Q500.074 28.8217 499.107 30.2695Q497.501 32.6602 496.681 35.5898Q496.044 37.8964 495.909 40.2321Q495.872 40.863 495.872 41.4961Q495.872 45.3604 497.717 47.8689Q498.048 48.3196 498.439 48.7266Q498.969 49.2756 499.579 49.7113ZM632.071 49.7113Q634.419 51.3867 637.962 51.3867Q640.94 51.3867 643.222 50.1268Q643.401 50.0282 643.576 49.9219Q644.434 49.3983 645.191 48.755Q646.552 47.5984 647.583 46.0547Q647.623 45.9952 647.662 45.9355Q649.209 43.5801 650.009 40.7344Q650.829 37.8047 650.829 34.875Q650.829 30.8732 648.901 28.3402Q648.61 27.9581 648.275 27.6094Q647.782 27.0921 647.216 26.675Q644.858 24.9375 641.22 24.9375Q638.473 24.9375 636.283 26.0415Q635.95 26.2092 635.63 26.4023Q634.666 26.9844 633.832 27.7145Q632.567 28.8217 631.599 30.2695Q629.994 32.6602 629.173 35.5898Q628.537 37.8964 628.401 40.2321Q628.365 40.863 628.365 41.4961Q628.365 45.3604 630.209 47.8689Q630.54 48.3196 630.931 48.7266Q631.461 49.2756 632.071 49.7113ZM15.6935 25.2773L10.2677 51L14.4864 51L17.1817 38.1797L25.338 51L30.377 51L21.7872 37.9922L34.502 25.2773L29.2286 25.2773L17.2286 37.6523L19.8653 25.2773L15.6935 25.2773ZM39.5744 50.2963Q41.2204 51.4805 43.7183 51.4805Q45.8277 51.4805 47.4332 50.6719Q49.0504 49.8516 50.2691 48.6328Q51.4996 47.4023 52.4136 46.2422L52.648 46.2422L52.1207 51L55.5777 51L61.0504 25.2773L56.8668 25.2773L54.523 36.3633Q53.609 40.582 51.9683 43.125Q50.3394 45.668 48.441 46.8281Q46.5543 47.9766 44.9254 47.9766Q43.153 47.9766 42.3552 47.0948Q42.3512 47.0904 42.3472 47.0859Q42.3149 47.0493 42.284 47.0116Q41.5621 46.1322 41.5621 44.6602Q41.5621 43.5117 41.9957 41.4492L45.4527 25.2773L41.1754 25.2773L37.8121 40.9688Q37.6246 42.0234 37.4488 43.0078Q37.2847 43.9922 37.2847 45.0938Q37.2847 47.8376 38.6376 49.4373Q38.8217 49.655 39.0308 49.8516Q39.2899 50.0916 39.5744 50.2963ZM71.6603 25.2773L66.1877 51L70.4064 51L72.8556 39.4805L84.9494 39.4805L82.547 51L86.8244 51L92.2502 25.2773L88.0197 25.2773L85.7228 35.9766L73.6291 35.9766L75.8322 25.2773L71.6603 25.2773ZM148.185 25.2773L142.76 51L146.978 51L149.674 38.1797L157.83 51L162.869 51L154.279 37.9922L166.994 25.2773L161.721 25.2773L149.721 37.6523L152.357 25.2773L148.185 25.2773ZM172.066 50.2963Q173.712 51.4805 176.21 51.4805Q178.32 51.4805 179.925 50.6719Q181.542 49.8516 182.761 48.6328Q183.992 47.4023 184.906 46.2422L185.14 46.2422L184.613 51L188.07 51L193.542 25.2773L189.359 25.2773L187.015 36.3633Q186.101 40.582 184.46 43.125Q182.831 45.668 180.933 46.8281Q179.046 47.9766 177.417 47.9766Q175.645 47.9766 174.847 47.0948Q174.843 47.0904 174.839 47.0859Q174.807 47.0493 174.776 47.0116Q174.054 46.1322 174.054 44.6602Q174.054 43.5117 174.488 41.4492L177.945 25.2773L173.667 25.2773L170.304 40.9688Q170.117 42.0234 169.941 43.0078Q169.777 43.9922 169.777 45.0938Q169.777 47.8376 171.13 49.4373Q171.314 49.655 171.523 49.8516Q171.782 50.0916 172.066 50.2963ZM204.152 25.2773L198.68 51L202.898 51L205.348 39.4805L217.441 39.4805L215.039 51L219.316 51L224.742 25.2773L220.512 25.2773L218.215 35.9766L206.121 35.9766L208.324 25.2773L204.152 25.2773ZM280.677 25.2773L275.252 51L279.47 51L282.166 38.1797L290.322 51L295.361 51L286.771 37.9922L299.486 25.2773L294.213 25.2773L282.213 37.6523L284.849 25.2773L280.677 25.2773ZM304.558 50.2963Q306.204 51.4805 308.702 51.4805Q310.812 51.4805 312.417 50.6719Q314.034 49.8516 315.253 48.6328Q316.484 47.4023 317.398 46.2422L317.632 46.2422L317.105 51L320.562 51L326.034 25.2773L321.851 25.2773L319.507 36.3633Q318.593 40.582 316.952 43.125Q315.323 45.668 313.425 46.8281Q311.538 47.9766 309.909 47.9766Q308.137 47.9766 307.339 47.0948L307.331 47.0859Q307.299 47.0493 307.268 47.0116Q306.546 46.1322 306.546 44.6602Q306.546 43.5117 306.98 41.4492L310.437 25.2773L306.159 25.2773L302.796 40.9688Q302.609 42.0234 302.433 43.0078Q302.269 43.9922 302.269 45.0938Q302.269 47.8376 303.622 49.4373Q303.806 49.655 304.015 49.8516Q304.274 50.0916 304.558 50.2963ZM336.644 25.2773L331.172 51L335.39 51L337.84 39.4805L349.933 39.4805L347.531 51L351.808 51L357.234 25.2773L353.004 25.2773L350.707 35.9766L338.613 35.9766L340.816 25.2773L336.644 25.2773ZM413.169 25.2773L407.744 51L411.962 51L414.658 38.1797L422.814 51L427.853 51L419.263 37.9922L431.978 25.2773L426.705 25.2773L414.705 37.6523L417.341 25.2773L413.169 25.2773ZM437.05 50.2963Q438.696 51.4805 441.194 51.4805Q443.304 51.4805 444.909 50.6719Q446.526 49.8516 447.745 48.6328Q448.975 47.4023 449.89 46.2422L450.124 46.2422L449.597 51L453.054 51L458.526 25.2773L454.343 25.2773L451.999 36.3633Q451.085 40.582 449.444 43.125Q447.815 45.668 445.917 46.8281Q444.03 47.9766 442.401 47.9766Q440.629 47.9766 439.831 47.0948L439.823 47.0859Q439.791 47.0493 439.76 47.0116Q439.038 46.1322 439.038 44.6602Q439.038 43.5117 439.472 41.4492L442.929 25.2773L438.651 25.2773L435.288 40.9688Q435.1 42.0234 434.925 43.0078Q434.761 43.9922 434.761 45.0938Q434.761 47.8376 436.113 49.4373Q436.298 49.655 436.507 49.8516Q436.766 50.0916 437.05 50.2963ZM469.136 25.2773L463.664 51L467.882 51L470.332 39.4805L482.425 39.4805L480.023 51L484.3 51L489.726 25.2773L485.496 25.2773L483.199 35.9766L471.105 35.9766L473.308 25.2773L469.136 25.2773ZM545.661 25.2773L540.236 51L544.454 51L547.15 38.1797L555.306 51L560.345 51L551.755 37.9922L564.47 25.2773L559.197 25.2773L547.197 37.6523L549.833 25.2773L545.661 25.2773ZM569.542 50.2963Q571.188 51.4805 573.686 51.4805Q575.796 51.4805 577.401 50.6719Q579.018 49.8516 580.237 48.6328Q581.468 47.4023 582.382 46.2422L582.616 46.2422L582.089 51L585.546 51L591.018 25.2773L586.835 25.2773L584.491 36.3633Q583.577 40.582 581.936 43.125Q580.307 45.668 578.409 46.8281Q576.522 47.9766 574.893 47.9766Q573.121 47.9766 572.323 47.0948L572.315 47.0859Q572.283 47.0493 572.252 47.0116Q571.53 46.1322 571.53 44.6602Q571.53 43.5117 571.964 41.4492L575.421 25.2773L571.143 25.2773L567.78 40.9688Q567.593 42.0234 567.417 43.0078Q567.253 43.9922 567.253 45.0938Q567.253 47.8376 568.606 49.4373Q568.79 49.655 568.999 49.8516Q569.258 50.0916 569.542 50.2963ZM601.628 25.2773L596.156 51L600.374 51L602.824 39.4805L614.917 39.4805L612.515 51L616.792 51L622.218 25.2773L617.988 25.2773L615.691 35.9766L603.597 35.9766L605.8 25.2773L601.628 25.2773ZM109.878 47.6626Q109.084 47.8828 108.229 47.8828Q106.205 47.8828 104.872 46.9236Q104.468 46.6328 104.127 46.2539Q102.662 44.6133 102.662 41.6367Q102.662 38.0391 103.717 35.0391Q104.772 32.0391 106.717 30.2461Q107.713 29.3223 108.89 28.8714Q110.012 28.4414 111.299 28.4414Q113.221 28.4414 114.369 29.332Q114.936 29.7614 115.346 30.3083Q115.776 30.8808 116.033 31.582Q116.34 32.4163 116.46 33.2767Q116.537 33.8302 116.537 34.3945Q116.537 38.6133 115.401 41.6367Q114.276 44.6602 112.401 46.2773Q111.227 47.2882 109.878 47.6626ZM242.37 47.6626Q241.576 47.8828 240.721 47.8828Q238.697 47.8828 237.364 46.9236Q236.96 46.6328 236.619 46.2539Q235.154 44.6133 235.154 41.6367Q235.154 38.0391 236.209 35.0391Q237.264 32.0391 239.209 30.2461Q240.205 29.3223 241.382 28.8714Q242.504 28.4414 243.791 28.4414Q245.713 28.4414 246.861 29.332Q247.428 29.7614 247.838 30.3083Q248.268 30.8808 248.525 31.582Q248.832 32.4163 248.952 33.2767Q249.029 33.8302 249.029 34.3945Q249.029 38.6133 247.892 41.6367Q246.767 44.6602 244.892 46.2773Q243.719 47.2882 242.37 47.6626ZM374.862 47.6626Q374.068 47.8828 373.213 47.8828Q371.189 47.8828 369.856 46.9236Q369.452 46.6328 369.111 46.2539Q367.646 44.6133 367.646 41.6367Q367.646 38.0391 368.701 35.0391Q369.756 32.0391 371.701 30.2461Q372.697 29.3223 373.874 28.8714Q374.996 28.4414 376.283 28.4414Q378.205 28.4414 379.353 29.332Q379.92 29.7614 380.33 30.3083Q380.76 30.8808 381.017 31.582Q381.324 32.4163 381.444 33.2767Q381.521 33.8302 381.521 34.3945Q381.521 38.6133 380.384 41.6367Q379.259 44.6602 377.384 46.2773Q376.211 47.2882 374.862 47.6626ZM507.353 47.6626Q506.56 47.8828 505.705 47.8828Q503.681 47.8828 502.348 46.9236Q501.944 46.6328 501.603 46.2539Q500.138 44.6133 500.138 41.6367Q500.138 38.0391 501.193 35.0391Q502.247 32.0391 504.193 30.2461Q505.189 29.3223 506.366 28.8714Q507.488 28.4414 508.775 28.4414Q510.697 28.4414 511.845 29.332Q512.412 29.7614 512.822 30.3083Q513.252 30.8808 513.509 31.582Q513.816 32.4163 513.936 33.2767Q514.013 33.8302 514.013 34.3945Q514.013 38.6133 512.876 41.6367Q511.751 44.6602 509.876 46.2773Q508.703 47.2882 507.353 47.6626ZM639.846 47.6626Q639.052 47.8828 638.197 47.8828Q636.173 47.8828 634.84 46.9236Q634.436 46.6328 634.095 46.2539Q632.63 44.6133 632.63 41.6367Q632.63 38.0391 633.685 35.0391Q634.74 32.0391 636.685 30.2461Q637.681 29.3223 638.858 28.8714Q639.98 28.4414 641.267 28.4414Q643.189 28.4414 644.337 29.332Q644.904 29.7614 645.314 30.3083Q645.744 30.8808 646.001 31.582Q646.308 32.4163 646.428 33.2767Q646.505 33.8302 646.505 34.3945Q646.505 38.6133 645.369 41.6367Q644.244 44.6602 642.369 46.2773Q641.195 47.2882 639.846 47.6626Z" fill="#FFFFFF" fill-opacity="1.000000" fill-rule="evenodd"/>
	</mask>
	<g mask="url(#mask64_795)">
		<rect id="Rectangle 14" x="-60.000000" y="-26.000000" width="778.954285" height="100.000000" fill="#D9D9D9" fill-opacity="0.200000"/>
		<rect id="Rectangle 14" x="-60.000000" y="-26.000000" width="778.954285" height="100.000000" fill="url(#paint_linear_64_796_0)" fill-opacity="0.200000"/>
	</g>
</svg>
