<svg width="678.000000" height="65.000000" viewBox="0 0 678 65" fill="none" xmlns="http://www.w3.org/2000/svg" xmlns:xlink="http://www.w3.org/1999/xlink">
	<desc>
			Created with Pixso.
	</desc>
	<defs>
		<linearGradient id="paint_linear_26_87_0" x1="-12.045746" y1="65.000000" x2="743.390991" y2="65.000000" gradientUnits="userSpaceOnUse">
			<stop stop-color="#D7007C"/>
			<stop offset="0.465690" stop-color="#464646"/>
			<stop offset="1.000000" stop-color="#D3C000"/>
		</linearGradient>
	</defs>
	<mask id="mask26_34" mask-type="alpha" maskUnits="userSpaceOnUse" x="0.000000" y="0.000000" width="678.000000" height="65.000000">
		<path id="[Linked] кино кино кино кино кино" d="M110.103 49.7113Q112.451 51.3867 115.994 51.3867Q118.972 51.3867 121.254 50.1268Q121.433 50.0282 121.608 49.9219Q122.466 49.3983 123.223 48.755Q124.584 47.5984 125.615 46.0547C126.686 44.4531 127.494 42.6797 128.041 40.7344Q128.861 37.8047 128.861 34.875C128.861 31.8047 128.01 29.3828 126.307 27.6094Q125.814 27.0921 125.248 26.675Q122.89 24.9375 119.252 24.9375Q116.505 24.9375 114.315 26.0415Q113.982 26.2092 113.662 26.4023Q112.698 26.9844 111.864 27.7145Q110.599 28.8217 109.631 30.2695Q108.026 32.6602 107.205 35.5898Q106.569 37.8964 106.433 40.2321Q106.397 40.863 106.397 41.4961Q106.397 45.3604 108.241 47.8689Q108.572 48.3196 108.963 48.7266Q109.493 49.2756 110.103 49.7113ZM242.595 49.7113Q244.943 51.3867 248.486 51.3867Q251.464 51.3867 253.746 50.1268Q253.925 50.0282 254.1 49.9219Q254.958 49.3983 255.715 48.755Q257.076 47.5984 258.107 46.0547Q258.147 45.9952 258.186 45.9355Q259.733 43.5801 260.533 40.7344Q261.353 37.8047 261.353 34.875Q261.353 30.8732 259.425 28.3402Q259.134 27.9581 258.799 27.6094Q258.306 27.0921 257.74 26.675Q255.382 24.9375 251.744 24.9375Q248.997 24.9375 246.807 26.0415Q246.474 26.2092 246.154 26.4023Q245.19 26.9844 244.356 27.7145Q243.09 28.8217 242.123 30.2695Q240.517 32.6602 239.697 35.5898Q239.061 37.8964 238.925 40.2321Q238.889 40.863 238.889 41.4961Q238.889 45.3604 240.733 47.8689Q241.064 48.3196 241.455 48.7266Q241.985 49.2756 242.595 49.7113ZM375.087 49.7113Q377.435 51.3867 380.978 51.3867Q383.956 51.3867 386.238 50.1268Q386.417 50.0282 386.591 49.9219Q387.45 49.3983 388.207 48.755Q389.568 47.5984 390.599 46.0547Q390.639 45.9952 390.678 45.9355Q392.225 43.5801 393.025 40.7344Q393.845 37.8047 393.845 34.875Q393.845 30.8732 391.917 28.3402Q391.626 27.9581 391.291 27.6094Q390.798 27.0921 390.232 26.675Q387.874 24.9375 384.236 24.9375Q381.489 24.9375 379.299 26.0415Q378.966 26.2092 378.646 26.4023Q377.682 26.9844 376.848 27.7145Q375.582 28.8217 374.615 30.2695Q373.009 32.6602 372.189 35.5898Q371.553 37.8964 371.417 40.2321Q371.381 40.863 371.381 41.4961Q371.381 45.3604 373.225 47.8689Q373.556 48.3196 373.947 48.7266Q374.477 49.2756 375.087 49.7113ZM507.579 49.7113Q509.927 51.3867 513.47 51.3867Q516.448 51.3867 518.73 50.1268Q518.909 50.0282 519.083 49.9219Q519.942 49.3983 520.699 48.755Q522.06 47.5984 523.091 46.0547Q523.131 45.9952 523.17 45.9355Q524.717 43.5801 525.517 40.7344Q526.337 37.8047 526.337 34.875Q526.337 30.8732 524.409 28.3402Q524.118 27.9581 523.783 27.6094Q523.29 27.0921 522.724 26.675Q520.366 24.9375 516.728 24.9375Q513.981 24.9375 511.791 26.0415Q511.458 26.2092 511.138 26.4023Q510.174 26.9844 509.34 27.7145Q508.074 28.8217 507.107 30.2695Q505.501 32.6602 504.681 35.5898Q504.044 37.8964 503.909 40.2321Q503.872 40.863 503.872 41.4961Q503.872 45.3604 505.717 47.8689Q506.048 48.3196 506.439 48.7266Q506.969 49.2756 507.579 49.7113ZM640.071 49.7113Q642.419 51.3867 645.962 51.3867Q648.94 51.3867 651.222 50.1268Q651.401 50.0282 651.576 49.9219Q652.434 49.3983 653.191 48.755Q654.552 47.5984 655.583 46.0547Q655.623 45.9952 655.662 45.9355Q657.209 43.5801 658.009 40.7344Q658.829 37.8047 658.829 34.875Q658.829 30.8732 656.901 28.3402Q656.61 27.9581 656.275 27.6094Q655.782 27.0921 655.216 26.675Q652.858 24.9375 649.22 24.9375Q646.473 24.9375 644.283 26.0415Q643.95 26.2092 643.63 26.4023Q642.666 26.9844 641.832 27.7145Q640.567 28.8217 639.599 30.2695Q637.994 32.6602 637.173 35.5898Q636.537 37.8964 636.401 40.2321Q636.365 40.863 636.365 41.4961Q636.365 45.3604 638.209 47.8689Q638.54 48.3196 638.931 48.7266Q639.461 49.2756 640.071 49.7113ZM23.6935 25.2773L18.2677 51L22.4864 51L25.1817 38.1797L33.338 51L38.377 51L29.7872 37.9922L42.502 25.2773L37.2286 25.2773L25.2286 37.6523L27.8653 25.2773L23.6935 25.2773ZM47.5744 50.2963Q49.2204 51.4805 51.7183 51.4805Q53.8277 51.4805 55.4332 50.6719Q57.0504 49.8516 58.2691 48.6328Q59.4996 47.4023 60.4136 46.2422L60.648 46.2422L60.1207 51L63.5777 51L69.0504 25.2773L64.8668 25.2773L62.523 36.3633Q61.609 40.582 59.9683 43.125Q58.3394 45.668 56.441 46.8281Q54.5543 47.9766 52.9254 47.9766Q51.153 47.9766 50.3552 47.0948Q50.3512 47.0904 50.3472 47.0859Q50.3149 47.0493 50.284 47.0116Q49.5621 46.1322 49.5621 44.6602Q49.5621 43.5117 49.9957 41.4492L53.4527 25.2773L49.1754 25.2773L45.8121 40.9688Q45.6246 42.0234 45.4488 43.0078Q45.2847 43.9922 45.2847 45.0938Q45.2847 47.8376 46.6376 49.4373Q46.8217 49.655 47.0308 49.8516Q47.2899 50.0916 47.5744 50.2963ZM79.6603 25.2773L74.1877 51L78.4064 51L80.8556 39.4805L92.9494 39.4805L90.547 51L94.8244 51L100.25 25.2773L96.0197 25.2773L93.7228 35.9766L81.6291 35.9766L83.8322 25.2773L79.6603 25.2773ZM156.185 25.2773L150.76 51L154.978 51L157.674 38.1797L165.83 51L170.869 51L162.279 37.9922L174.994 25.2773L169.721 25.2773L157.721 37.6523L160.357 25.2773L156.185 25.2773ZM180.066 50.2963Q181.712 51.4805 184.21 51.4805Q186.32 51.4805 187.925 50.6719Q189.542 49.8516 190.761 48.6328Q191.992 47.4023 192.906 46.2422L193.14 46.2422L192.613 51L196.07 51L201.542 25.2773L197.359 25.2773L195.015 36.3633Q194.101 40.582 192.46 43.125Q190.831 45.668 188.933 46.8281Q187.046 47.9766 185.417 47.9766Q183.645 47.9766 182.847 47.0948Q182.843 47.0904 182.839 47.0859Q182.807 47.0493 182.776 47.0116Q182.054 46.1322 182.054 44.6602Q182.054 43.5117 182.488 41.4492L185.945 25.2773L181.667 25.2773L178.304 40.9688Q178.117 42.0234 177.941 43.0078Q177.777 43.9922 177.777 45.0938Q177.777 47.8376 179.13 49.4373Q179.314 49.655 179.523 49.8516Q179.782 50.0916 180.066 50.2963ZM212.152 25.2773L206.68 51L210.898 51L213.348 39.4805L225.441 39.4805L223.039 51L227.316 51L232.742 25.2773L228.512 25.2773L226.215 35.9766L214.121 35.9766L216.324 25.2773L212.152 25.2773ZM288.677 25.2773L283.252 51L287.47 51L290.166 38.1797L298.322 51L303.361 51L294.771 37.9922L307.486 25.2773L302.213 25.2773L290.213 37.6523L292.849 25.2773L288.677 25.2773ZM312.558 50.2963Q314.204 51.4805 316.702 51.4805Q318.812 51.4805 320.417 50.6719Q322.034 49.8516 323.253 48.6328Q324.484 47.4023 325.398 46.2422L325.632 46.2422L325.105 51L328.562 51L334.034 25.2773L329.851 25.2773L327.507 36.3633Q326.593 40.582 324.952 43.125Q323.323 45.668 321.425 46.8281Q319.538 47.9766 317.909 47.9766Q316.137 47.9766 315.339 47.0948L315.331 47.0859Q315.299 47.0493 315.268 47.0116Q314.546 46.1322 314.546 44.6602Q314.546 43.5117 314.98 41.4492L318.437 25.2773L314.159 25.2773L310.796 40.9688Q310.609 42.0234 310.433 43.0078Q310.269 43.9922 310.269 45.0938Q310.269 47.8376 311.622 49.4373Q311.806 49.655 312.015 49.8516Q312.274 50.0916 312.558 50.2963ZM344.644 25.2773L339.172 51L343.39 51L345.84 39.4805L357.933 39.4805L355.531 51L359.808 51L365.234 25.2773L361.004 25.2773L358.707 35.9766L346.613 35.9766L348.816 25.2773L344.644 25.2773ZM421.169 25.2773L415.744 51L419.962 51L422.658 38.1797L430.814 51L435.853 51L427.263 37.9922L439.978 25.2773L434.705 25.2773L422.705 37.6523L425.341 25.2773L421.169 25.2773ZM445.05 50.2963Q446.696 51.4805 449.194 51.4805Q451.304 51.4805 452.909 50.6719Q454.526 49.8516 455.745 48.6328Q456.975 47.4023 457.89 46.2422L458.124 46.2422L457.597 51L461.054 51L466.526 25.2773L462.343 25.2773L459.999 36.3633Q459.085 40.582 457.444 43.125Q455.815 45.668 453.917 46.8281Q452.03 47.9766 450.401 47.9766Q448.629 47.9766 447.831 47.0948L447.823 47.0859Q447.791 47.0493 447.76 47.0116Q447.038 46.1322 447.038 44.6602Q447.038 43.5117 447.472 41.4492L450.929 25.2773L446.651 25.2773L443.288 40.9688Q443.1 42.0234 442.925 43.0078Q442.761 43.9922 442.761 45.0938Q442.761 47.8376 444.113 49.4373Q444.298 49.655 444.507 49.8516Q444.766 50.0916 445.05 50.2963ZM477.136 25.2773L471.664 51L475.882 51L478.332 39.4805L490.425 39.4805L488.023 51L492.3 51L497.726 25.2773L493.496 25.2773L491.199 35.9766L479.105 35.9766L481.308 25.2773L477.136 25.2773ZM553.661 25.2773L548.236 51L552.454 51L555.15 38.1797L563.306 51L568.345 51L559.755 37.9922L572.47 25.2773L567.197 25.2773L555.197 37.6523L557.833 25.2773L553.661 25.2773ZM577.542 50.2963Q579.188 51.4805 581.686 51.4805Q583.796 51.4805 585.401 50.6719Q587.018 49.8516 588.237 48.6328Q589.468 47.4023 590.382 46.2422L590.616 46.2422L590.089 51L593.546 51L599.018 25.2773L594.835 25.2773L592.491 36.3633Q591.577 40.582 589.936 43.125Q588.307 45.668 586.409 46.8281Q584.522 47.9766 582.893 47.9766Q581.121 47.9766 580.323 47.0948L580.315 47.0859Q580.283 47.0493 580.252 47.0116Q579.53 46.1322 579.53 44.6602Q579.53 43.5117 579.964 41.4492L583.421 25.2773L579.143 25.2773L575.78 40.9688Q575.593 42.0234 575.417 43.0078Q575.253 43.9922 575.253 45.0938Q575.253 47.8376 576.606 49.4373Q576.79 49.655 576.999 49.8516Q577.258 50.0916 577.542 50.2963ZM609.628 25.2773L604.156 51L608.374 51L610.824 39.4805L622.917 39.4805L620.515 51L624.792 51L630.218 25.2773L625.988 25.2773L623.691 35.9766L611.597 35.9766L613.8 25.2773L609.628 25.2773ZM117.878 47.6626Q117.084 47.8828 116.229 47.8828Q114.205 47.8828 112.872 46.9236Q112.468 46.6328 112.127 46.2539Q110.662 44.6133 110.662 41.6367Q110.662 38.0391 111.717 35.0391Q112.772 32.0391 114.717 30.2461Q115.713 29.3223 116.89 28.8714Q118.012 28.4414 119.299 28.4414Q121.221 28.4414 122.369 29.332Q122.936 29.7614 123.346 30.3083Q123.776 30.8808 124.033 31.582Q124.34 32.4163 124.46 33.2767Q124.537 33.8302 124.537 34.3945Q124.537 38.6133 123.401 41.6367Q122.276 44.6602 120.401 46.2773Q119.227 47.2882 117.878 47.6626ZM250.37 47.6626Q249.576 47.8828 248.721 47.8828Q246.697 47.8828 245.364 46.9236Q244.96 46.6328 244.619 46.2539Q243.154 44.6133 243.154 41.6367Q243.154 38.0391 244.209 35.0391Q245.264 32.0391 247.209 30.2461Q248.205 29.3223 249.382 28.8714Q250.504 28.4414 251.791 28.4414Q253.713 28.4414 254.861 29.332Q255.428 29.7614 255.838 30.3083Q256.268 30.8808 256.525 31.582Q256.832 32.4163 256.952 33.2767Q257.029 33.8302 257.029 34.3945Q257.029 38.6133 255.892 41.6367Q254.767 44.6602 252.892 46.2773Q251.719 47.2882 250.37 47.6626ZM382.862 47.6626Q382.068 47.8828 381.213 47.8828Q379.189 47.8828 377.856 46.9236Q377.452 46.6328 377.111 46.2539Q375.646 44.6133 375.646 41.6367Q375.646 38.0391 376.701 35.0391Q377.756 32.0391 379.701 30.2461Q380.697 29.3223 381.874 28.8714Q382.996 28.4414 384.283 28.4414Q386.205 28.4414 387.353 29.332Q387.92 29.7614 388.33 30.3083Q388.76 30.8808 389.017 31.582Q389.324 32.4163 389.444 33.2767Q389.521 33.8302 389.521 34.3945Q389.521 38.6133 388.384 41.6367Q387.259 44.6602 385.384 46.2773Q384.211 47.2882 382.862 47.6626ZM515.353 47.6626Q514.56 47.8828 513.705 47.8828Q511.681 47.8828 510.348 46.9236Q509.944 46.6328 509.603 46.2539Q508.138 44.6133 508.138 41.6367Q508.138 38.0391 509.193 35.0391Q510.247 32.0391 512.193 30.2461Q513.189 29.3223 514.366 28.8714Q515.488 28.4414 516.775 28.4414Q518.697 28.4414 519.845 29.332Q520.412 29.7614 520.822 30.3083Q521.252 30.8808 521.509 31.582Q521.816 32.4163 521.936 33.2767Q522.013 33.8302 522.013 34.3945Q522.013 38.6133 520.876 41.6367Q519.751 44.6602 517.876 46.2773Q516.703 47.2882 515.353 47.6626ZM647.846 47.6626Q647.052 47.8828 646.197 47.8828Q644.173 47.8828 642.84 46.9236Q642.436 46.6328 642.095 46.2539Q640.63 44.6133 640.63 41.6367Q640.63 38.0391 641.685 35.0391Q642.74 32.0391 644.685 30.2461Q645.681 29.3223 646.858 28.8714Q647.98 28.4414 649.267 28.4414Q651.189 28.4414 652.337 29.332Q652.904 29.7614 653.314 30.3083Q653.744 30.8808 654.001 31.582Q654.308 32.4163 654.428 33.2767Q654.505 33.8302 654.505 34.3945Q654.505 38.6133 653.369 41.6367Q652.244 44.6602 650.369 46.2773Q649.195 47.2882 647.846 47.6626Z" fill="#FFFFFF" fill-opacity="1.000000" fill-rule="evenodd"/>
	</mask>
	<g mask="url(#mask26_34)">
		<rect id="Rectangle 14" x="-35.563477" y="-35.000000" width="778.954285" height="100.000000" fill="#D9D9D9" fill-opacity="0.200000"/>
		<rect id="Rectangle 14" x="-35.563477" y="-35.000000" width="778.954285" height="100.000000" fill="url(#paint_linear_26_87_0)" fill-opacity="0.200000"/>
	</g>
</svg>
