<svg width="671.000000" height="73.000000" viewBox="0 0 671 73" fill="none" xmlns="http://www.w3.org/2000/svg" xmlns:xlink="http://www.w3.org/1999/xlink">
	<desc>
			Created with Pixso.
	</desc>
	<defs>
		<filter id="filter_26_93_dd" x="0.000000" y="0.000000" width="671.000000" height="73.000000" filterUnits="userSpaceOnUse" color-interpolation-filters="sRGB">
			<feFlood flood-opacity="0" result="BackgroundImageFix"/>
			<feColorMatrix in="SourceAlpha" type="matrix" values="0 0 0 0 0 0 0 0 0 0 0 0 0 0 0 0 0 0 127 0" result="hardAlpha"/>
			<feOffset dx="0" dy="4"/>
			<feGaussianBlur stdDeviation="1.33333"/>
			<feComposite in2="hardAlpha" operator="out" k2="-1" k3="1"/>
			<feColorMatrix type="matrix" values="0 0 0 0 0 0 0 0 0 0 0 0 0 0 0 0 0 0 0.25 0"/>
			<feBlend mode="normal" in2="BackgroundImageFix" result="effect_dropShadow_1"/>
			<feBlend mode="normal" in="SourceGraphic" in2="effect_dropShadow_1" result="shape"/>
		</filter>
		<linearGradient id="paint_linear_26_95_0" x1="-21.896118" y1="74.000000" x2="716.827393" y2="74.000000" gradientUnits="userSpaceOnUse">
			<stop stop-color="#D3C000"/>
			<stop offset="0.465690" stop-color="#464646"/>
			<stop offset="1.000000" stop-color="#D7007C"/>
		</linearGradient>
	</defs>
	<g filter="url(#filter_26_93_dd)">
		<mask id="mask26_94" mask-type="alpha" maskUnits="userSpaceOnUse" x="4.000000" y="0.000000" width="663.000000" height="65.000000">
			<path id="[Linked] кино кино кино кино кино" d="M114.103 49.7113Q116.451 51.3867 119.994 51.3867Q122.972 51.3867 125.254 50.1268Q125.433 50.0282 125.608 49.9219Q126.466 49.3983 127.223 48.755Q128.584 47.5984 129.615 46.0547C130.686 44.4531 131.494 42.6797 132.041 40.7344Q132.861 37.8047 132.861 34.875C132.861 31.8047 132.01 29.3828 130.307 27.6094Q129.814 27.0921 129.248 26.675Q126.89 24.9375 123.252 24.9375Q120.505 24.9375 118.315 26.0415Q117.982 26.2092 117.662 26.4023Q116.698 26.9844 115.864 27.7145Q114.599 28.8217 113.631 30.2695Q112.026 32.6602 111.205 35.5898Q110.569 37.8964 110.433 40.2321Q110.397 40.863 110.397 41.4961Q110.397 45.3604 112.241 47.8689Q112.572 48.3196 112.963 48.7266Q113.493 49.2756 114.103 49.7113ZM246.595 49.7113Q248.943 51.3867 252.486 51.3867Q255.464 51.3867 257.746 50.1268Q257.925 50.0282 258.1 49.9219Q258.958 49.3983 259.715 48.755Q261.076 47.5984 262.107 46.0547Q262.147 45.9952 262.186 45.9355Q263.733 43.5801 264.533 40.7344Q265.353 37.8047 265.353 34.875Q265.353 30.8732 263.425 28.3402Q263.134 27.9581 262.799 27.6094Q262.306 27.0921 261.74 26.675Q259.382 24.9375 255.744 24.9375Q252.997 24.9375 250.807 26.0415Q250.474 26.2092 250.154 26.4023Q249.19 26.9844 248.356 27.7145Q247.09 28.8217 246.123 30.2695Q244.517 32.6602 243.697 35.5898Q243.061 37.8964 242.925 40.2321Q242.889 40.863 242.889 41.4961Q242.889 45.3604 244.733 47.8689Q245.064 48.3196 245.455 48.7266Q245.985 49.2756 246.595 49.7113ZM379.087 49.7113Q381.435 51.3867 384.978 51.3867Q387.956 51.3867 390.238 50.1268Q390.417 50.0282 390.591 49.9219Q391.45 49.3983 392.207 48.755Q393.568 47.5984 394.599 46.0547Q394.639 45.9952 394.678 45.9355Q396.225 43.5801 397.025 40.7344Q397.845 37.8047 397.845 34.875Q397.845 30.8732 395.917 28.3402Q395.626 27.9581 395.291 27.6094Q394.798 27.0921 394.232 26.675Q391.874 24.9375 388.236 24.9375Q385.489 24.9375 383.299 26.0415Q382.966 26.2092 382.646 26.4023Q381.682 26.9844 380.848 27.7145Q379.582 28.8217 378.615 30.2695Q377.009 32.6602 376.189 35.5898Q375.553 37.8964 375.417 40.2321Q375.381 40.863 375.381 41.4961Q375.381 45.3604 377.225 47.8689Q377.556 48.3196 377.947 48.7266Q378.477 49.2756 379.087 49.7113ZM511.579 49.7113Q513.927 51.3867 517.47 51.3867Q520.448 51.3867 522.73 50.1268Q522.909 50.0282 523.083 49.9219Q523.942 49.3983 524.699 48.755Q526.06 47.5984 527.091 46.0547Q527.131 45.9952 527.17 45.9355Q528.717 43.5801 529.517 40.7344Q530.337 37.8047 530.337 34.875Q530.337 30.8732 528.409 28.3402Q528.118 27.9581 527.783 27.6094Q527.29 27.0921 526.724 26.675Q524.366 24.9375 520.728 24.9375Q517.981 24.9375 515.791 26.0415Q515.458 26.2092 515.138 26.4023Q514.174 26.9844 513.34 27.7145Q512.074 28.8217 511.107 30.2695Q509.501 32.6602 508.681 35.5898Q508.044 37.8964 507.909 40.2321Q507.872 40.863 507.872 41.4961Q507.872 45.3604 509.717 47.8689Q510.048 48.3196 510.439 48.7266Q510.969 49.2756 511.579 49.7113ZM644.071 49.7113Q646.419 51.3867 649.962 51.3867Q652.94 51.3867 655.222 50.1268Q655.401 50.0282 655.576 49.9219Q656.434 49.3983 657.191 48.755Q658.552 47.5984 659.583 46.0547Q659.623 45.9952 659.662 45.9355Q661.209 43.5801 662.009 40.7344Q662.829 37.8047 662.829 34.875Q662.829 30.8732 660.901 28.3402Q660.61 27.9581 660.275 27.6094Q659.782 27.0921 659.216 26.675Q656.858 24.9375 653.22 24.9375Q650.473 24.9375 648.283 26.0415Q647.95 26.2092 647.63 26.4023Q646.666 26.9844 645.832 27.7145Q644.567 28.8217 643.599 30.2695Q641.994 32.6602 641.173 35.5898Q640.537 37.8964 640.401 40.2321Q640.365 40.863 640.365 41.4961Q640.365 45.3604 642.209 47.8689Q642.54 48.3196 642.931 48.7266Q643.461 49.2756 644.071 49.7113ZM27.6935 25.2773L22.2677 51L26.4864 51L29.1817 38.1797L37.338 51L42.377 51L33.7872 37.9922L46.502 25.2773L41.2286 25.2773L29.2286 37.6523L31.8653 25.2773L27.6935 25.2773ZM51.5744 50.2963Q53.2204 51.4805 55.7183 51.4805Q57.8277 51.4805 59.4332 50.6719Q61.0504 49.8516 62.2691 48.6328Q63.4996 47.4023 64.4136 46.2422L64.648 46.2422L64.1207 51L67.5777 51L73.0504 25.2773L68.8668 25.2773L66.523 36.3633Q65.6089 40.582 63.9683 43.125Q62.3394 45.668 60.441 46.8281Q58.5543 47.9766 56.9254 47.9766Q55.153 47.9766 54.3552 47.0948Q54.3512 47.0904 54.3472 47.0859Q54.3149 47.0493 54.284 47.0116Q53.5621 46.1322 53.5621 44.6602Q53.5621 43.5117 53.9957 41.4492L57.4527 25.2773L53.1754 25.2773L49.8121 40.9688Q49.6246 42.0234 49.4488 43.0078Q49.2847 43.9922 49.2847 45.0938Q49.2847 47.8376 50.6376 49.4373Q50.8217 49.655 51.0308 49.8516Q51.2899 50.0916 51.5744 50.2963ZM83.6603 25.2773L78.1877 51L82.4064 51L84.8556 39.4805L96.9494 39.4805L94.547 51L98.8244 51L104.25 25.2773L100.02 25.2773L97.7228 35.9766L85.6291 35.9766L87.8322 25.2773L83.6603 25.2773ZM160.185 25.2773L154.76 51L158.978 51L161.674 38.1797L169.83 51L174.869 51L166.279 37.9922L178.994 25.2773L173.721 25.2773L161.721 37.6523L164.357 25.2773L160.185 25.2773ZM184.066 50.2963Q185.712 51.4805 188.21 51.4805Q190.32 51.4805 191.925 50.6719Q193.542 49.8516 194.761 48.6328Q195.992 47.4023 196.906 46.2422L197.14 46.2422L196.613 51L200.07 51L205.542 25.2773L201.359 25.2773L199.015 36.3633Q198.101 40.582 196.46 43.125Q194.831 45.668 192.933 46.8281Q191.046 47.9766 189.417 47.9766Q187.645 47.9766 186.847 47.0948Q186.843 47.0904 186.839 47.0859Q186.807 47.0493 186.776 47.0116Q186.054 46.1322 186.054 44.6602Q186.054 43.5117 186.488 41.4492L189.945 25.2773L185.667 25.2773L182.304 40.9688Q182.117 42.0234 181.941 43.0078Q181.777 43.9922 181.777 45.0938Q181.777 47.8376 183.13 49.4373Q183.314 49.655 183.523 49.8516Q183.782 50.0916 184.066 50.2963ZM216.152 25.2773L210.68 51L214.898 51L217.348 39.4805L229.441 39.4805L227.039 51L231.316 51L236.742 25.2773L232.512 25.2773L230.215 35.9766L218.121 35.9766L220.324 25.2773L216.152 25.2773ZM292.677 25.2773L287.252 51L291.47 51L294.166 38.1797L302.322 51L307.361 51L298.771 37.9922L311.486 25.2773L306.213 25.2773L294.213 37.6523L296.849 25.2773L292.677 25.2773ZM316.558 50.2963Q318.204 51.4805 320.702 51.4805Q322.812 51.4805 324.417 50.6719Q326.034 49.8516 327.253 48.6328Q328.484 47.4023 329.398 46.2422L329.632 46.2422L329.105 51L332.562 51L338.034 25.2773L333.851 25.2773L331.507 36.3633Q330.593 40.582 328.952 43.125Q327.323 45.668 325.425 46.8281Q323.538 47.9766 321.909 47.9766Q320.137 47.9766 319.339 47.0948L319.331 47.0859Q319.299 47.0493 319.268 47.0116Q318.546 46.1322 318.546 44.6602Q318.546 43.5117 318.98 41.4492L322.437 25.2773L318.159 25.2773L314.796 40.9688Q314.609 42.0234 314.433 43.0078Q314.269 43.9922 314.269 45.0938Q314.269 47.8376 315.622 49.4373Q315.806 49.655 316.015 49.8516Q316.274 50.0916 316.558 50.2963ZM348.644 25.2773L343.172 51L347.39 51L349.84 39.4805L361.933 39.4805L359.531 51L363.808 51L369.234 25.2773L365.004 25.2773L362.707 35.9766L350.613 35.9766L352.816 25.2773L348.644 25.2773ZM425.169 25.2773L419.744 51L423.962 51L426.658 38.1797L434.814 51L439.853 51L431.263 37.9922L443.978 25.2773L438.705 25.2773L426.705 37.6523L429.341 25.2773L425.169 25.2773ZM449.05 50.2963Q450.696 51.4805 453.194 51.4805Q455.304 51.4805 456.909 50.6719Q458.526 49.8516 459.745 48.6328Q460.975 47.4023 461.89 46.2422L462.124 46.2422L461.597 51L465.054 51L470.526 25.2773L466.343 25.2773L463.999 36.3633Q463.085 40.582 461.444 43.125Q459.815 45.668 457.917 46.8281Q456.03 47.9766 454.401 47.9766Q452.629 47.9766 451.831 47.0948L451.823 47.0859Q451.791 47.0493 451.76 47.0116Q451.038 46.1322 451.038 44.6602Q451.038 43.5117 451.472 41.4492L454.929 25.2773L450.651 25.2773L447.288 40.9688Q447.1 42.0234 446.925 43.0078Q446.761 43.9922 446.761 45.0938Q446.761 47.8376 448.113 49.4373Q448.298 49.655 448.507 49.8516Q448.766 50.0916 449.05 50.2963ZM481.136 25.2773L475.664 51L479.882 51L482.332 39.4805L494.425 39.4805L492.023 51L496.3 51L501.726 25.2773L497.496 25.2773L495.199 35.9766L483.105 35.9766L485.308 25.2773L481.136 25.2773ZM557.661 25.2773L552.236 51L556.454 51L559.15 38.1797L567.306 51L572.345 51L563.755 37.9922L576.47 25.2773L571.197 25.2773L559.197 37.6523L561.833 25.2773L557.661 25.2773ZM581.542 50.2963Q583.188 51.4805 585.686 51.4805Q587.796 51.4805 589.401 50.6719Q591.018 49.8516 592.237 48.6328Q593.468 47.4023 594.382 46.2422L594.616 46.2422L594.089 51L597.546 51L603.018 25.2773L598.835 25.2773L596.491 36.3633Q595.577 40.582 593.936 43.125Q592.307 45.668 590.409 46.8281Q588.522 47.9766 586.893 47.9766Q585.121 47.9766 584.323 47.0948L584.315 47.0859Q584.283 47.0493 584.252 47.0116Q583.53 46.1322 583.53 44.6602Q583.53 43.5117 583.964 41.4492L587.421 25.2773L583.143 25.2773L579.78 40.9688Q579.593 42.0234 579.417 43.0078Q579.253 43.9922 579.253 45.0938Q579.253 47.8376 580.606 49.4373Q580.79 49.655 580.999 49.8516Q581.258 50.0916 581.542 50.2963ZM613.628 25.2773L608.156 51L612.374 51L614.824 39.4805L626.917 39.4805L624.515 51L628.792 51L634.218 25.2773L629.988 25.2773L627.691 35.9766L615.597 35.9766L617.8 25.2773L613.628 25.2773ZM121.878 47.6626Q121.084 47.8828 120.229 47.8828Q118.205 47.8828 116.872 46.9236Q116.468 46.6328 116.127 46.2539Q114.662 44.6133 114.662 41.6367Q114.662 38.0391 115.717 35.0391Q116.772 32.0391 118.717 30.2461Q119.713 29.3223 120.89 28.8714Q122.012 28.4414 123.299 28.4414Q125.221 28.4414 126.369 29.332Q126.936 29.7614 127.346 30.3083Q127.776 30.8808 128.033 31.582Q128.34 32.4163 128.46 33.2767Q128.537 33.8302 128.537 34.3945Q128.537 38.6133 127.401 41.6367Q126.276 44.6602 124.401 46.2773Q123.227 47.2882 121.878 47.6626ZM254.37 47.6626Q253.576 47.8828 252.721 47.8828Q250.697 47.8828 249.364 46.9236Q248.96 46.6328 248.619 46.2539Q247.154 44.6133 247.154 41.6367Q247.154 38.0391 248.209 35.0391Q249.264 32.0391 251.209 30.2461Q252.205 29.3223 253.382 28.8714Q254.504 28.4414 255.791 28.4414Q257.713 28.4414 258.861 29.332Q259.428 29.7614 259.838 30.3083Q260.268 30.8808 260.525 31.582Q260.832 32.4163 260.952 33.2767Q261.029 33.8302 261.029 34.3945Q261.029 38.6133 259.892 41.6367Q258.767 44.6602 256.892 46.2773Q255.719 47.2882 254.37 47.6626ZM386.862 47.6626Q386.068 47.8828 385.213 47.8828Q383.189 47.8828 381.856 46.9236Q381.452 46.6328 381.111 46.2539Q379.646 44.6133 379.646 41.6367Q379.646 38.0391 380.701 35.0391Q381.756 32.0391 383.701 30.2461Q384.697 29.3223 385.874 28.8714Q386.996 28.4414 388.283 28.4414Q390.205 28.4414 391.353 29.332Q391.92 29.7614 392.33 30.3083Q392.76 30.8808 393.017 31.582Q393.324 32.4163 393.444 33.2767Q393.521 33.8302 393.521 34.3945Q393.521 38.6133 392.384 41.6367Q391.259 44.6602 389.384 46.2773Q388.211 47.2882 386.862 47.6626ZM519.353 47.6626Q518.56 47.8828 517.705 47.8828Q515.681 47.8828 514.348 46.9236Q513.944 46.6328 513.603 46.2539Q512.138 44.6133 512.138 41.6367Q512.138 38.0391 513.193 35.0391Q514.247 32.0391 516.193 30.2461Q517.189 29.3223 518.366 28.8714Q519.488 28.4414 520.775 28.4414Q522.697 28.4414 523.845 29.332Q524.412 29.7614 524.822 30.3083Q525.252 30.8808 525.509 31.582Q525.816 32.4163 525.936 33.2767Q526.013 33.8302 526.013 34.3945Q526.013 38.6133 524.876 41.6367Q523.751 44.6602 521.876 46.2773Q520.703 47.2882 519.353 47.6626ZM651.846 47.6626Q651.052 47.8828 650.197 47.8828Q648.173 47.8828 646.84 46.9236Q646.436 46.6328 646.095 46.2539Q644.63 44.6133 644.63 41.6367Q644.63 38.0391 645.685 35.0391Q646.74 32.0391 648.685 30.2461Q649.681 29.3223 650.858 28.8714Q651.98 28.4414 653.267 28.4414Q655.189 28.4414 656.337 29.332Q656.904 29.7614 657.314 30.3083Q657.744 30.8808 658.001 31.582Q658.308 32.4163 658.428 33.2767Q658.505 33.8302 658.505 34.3945Q658.505 38.6133 657.369 41.6367Q656.244 44.6602 654.369 46.2773Q653.195 47.2882 651.846 47.6626Z" fill="#FFFFFF" fill-opacity="1.000000" fill-rule="evenodd"/>
		</mask>
		<g mask="url(#mask26_94)">
			<rect id="Rectangle 14" x="-44.893555" y="-26.000000" width="761.720764" height="100.000000" fill="#D9D9D9" fill-opacity="0.200000"/>
			<rect id="Rectangle 14" x="-44.893555" y="-26.000000" width="761.720764" height="100.000000" fill="url(#paint_linear_26_95_0)" fill-opacity="0.200000"/>
		</g>
	</g>
</svg>
