<svg width="678.000000" height="70.000000" viewBox="0 0 678 70" fill="none" xmlns="http://www.w3.org/2000/svg" xmlns:xlink="http://www.w3.org/1999/xlink">
	<desc>
			Created with Pixso.
	</desc>
	<defs>
		<filter id="filter_26_102_dd" x="-54.000000" y="34.000000" width="786.954102" height="108.000000" filterUnits="userSpaceOnUse" color-interpolation-filters="sRGB">
			<feFlood flood-opacity="0" result="BackgroundImageFix"/>
			<feColorMatrix in="SourceAlpha" type="matrix" values="0 0 0 0 0 0 0 0 0 0 0 0 0 0 0 0 0 0 127 0" result="hardAlpha"/>
			<feOffset dx="0" dy="4"/>
			<feGaussianBlur stdDeviation="1.33333"/>
			<feComposite in2="hardAlpha" operator="out" k2="-1" k3="1"/>
			<feColorMatrix type="matrix" values="0 0 0 0 0 0 0 0 0 0 0 0 0 0 0 0 0 0 0.25 0"/>
			<feBlend mode="normal" in2="BackgroundImageFix" result="effect_dropShadow_1"/>
			<feBlend mode="normal" in="SourceGraphic" in2="effect_dropShadow_1" result="shape"/>
		</filter>
		<linearGradient id="paint_linear_26_102_0" x1="-26.482269" y1="134.000000" x2="728.954468" y2="134.000000" gradientUnits="userSpaceOnUse">
			<stop stop-color="#D3C000"/>
			<stop offset="0.465690" stop-color="#464646"/>
			<stop offset="1.000000" stop-color="#D7007C"/>
		</linearGradient>
	</defs>
	<mask id="mask26_101" mask-type="alpha" maskUnits="userSpaceOnUse" x="0.000000" y="0.000000" width="678.000000" height="70.000000">
		<path id="[Linked] кино кино кино кино кино" d="M316.791 56.7113Q319.139 58.3867 322.682 58.3867Q325.66 58.3867 327.942 57.1268Q328.121 57.0282 328.296 56.9219Q329.154 56.3983 329.911 55.755Q331.272 54.5984 332.303 53.0547Q332.343 52.9952 332.382 52.9355Q333.929 50.5801 334.729 47.7344Q335.549 44.8047 335.549 41.875Q335.549 37.8732 333.621 35.3402Q333.33 34.9581 332.995 34.6094Q332.502 34.0921 331.936 33.675Q329.578 31.9375 325.94 31.9375Q323.193 31.9375 321.003 33.0415Q320.67 33.2092 320.35 33.4023Q319.386 33.9844 318.552 34.7145Q317.287 35.8217 316.319 37.2695Q314.714 39.6602 313.893 42.5898Q313.257 44.8964 313.121 47.2321Q313.085 47.863 313.085 48.4961Q313.085 52.3604 314.929 54.8689Q315.26 55.3196 315.651 55.7266Q316.181 56.2756 316.791 56.7113ZM449.283 56.7113Q451.631 58.3867 455.174 58.3867Q458.152 58.3867 460.434 57.1268Q460.613 57.0282 460.788 56.9219Q461.646 56.3983 462.403 55.755Q463.764 54.5984 464.795 53.0547Q464.835 52.9952 464.874 52.9355Q466.421 50.5801 467.221 47.7344Q468.041 44.8047 468.041 41.875Q468.041 37.8732 466.113 35.3402Q465.822 34.9581 465.487 34.6094Q464.994 34.0921 464.428 33.675Q462.07 31.9375 458.432 31.9375Q455.685 31.9375 453.495 33.0415Q453.162 33.2092 452.842 33.4023Q451.878 33.9844 451.044 34.7145Q449.779 35.8217 448.811 37.2695Q447.206 39.6602 446.385 42.5898Q445.749 44.8964 445.613 47.2321Q445.577 47.863 445.577 48.4961Q445.577 52.3604 447.421 54.8689Q447.752 55.3196 448.143 55.7266Q448.673 56.2756 449.283 56.7113ZM230.381 32.2773L224.956 58L229.174 58L231.87 45.1797L240.026 58L245.065 58L236.475 44.9922L249.19 32.2773L243.917 32.2773L231.917 44.6523L234.553 32.2773L230.381 32.2773ZM254.262 57.2963Q255.908 58.4805 258.406 58.4805Q260.516 58.4805 262.121 57.6719Q263.738 56.8516 264.957 55.6328Q266.188 54.4023 267.102 53.2422L267.336 53.2422L266.809 58L270.266 58L275.738 32.2773L271.555 32.2773L269.211 43.3633Q268.297 47.582 266.656 50.125Q265.027 52.668 263.129 53.8281Q261.242 54.9766 259.613 54.9766Q257.841 54.9766 257.043 54.0948L257.035 54.0859Q257.003 54.0493 256.972 54.0116Q256.25 53.1322 256.25 51.6602Q256.25 50.5117 256.684 48.4492L260.141 32.2773L255.863 32.2773L252.5 47.9688Q252.313 49.0234 252.137 50.0078Q251.973 50.9922 251.973 52.0938Q251.973 54.8376 253.326 56.4373Q253.51 56.655 253.719 56.8516Q253.978 57.0916 254.262 57.2963ZM286.348 32.2773L280.876 58L285.094 58L287.544 46.4805L299.637 46.4805L297.235 58L301.512 58L306.938 32.2773L302.708 32.2773L300.411 42.9766L288.317 42.9766L290.52 32.2773L286.348 32.2773ZM362.873 32.2773L357.448 58L361.666 58L364.362 45.1797L372.518 58L377.557 58L368.967 44.9922L381.682 32.2773L376.409 32.2773L364.409 44.6523L367.045 32.2773L362.873 32.2773ZM386.754 57.2963Q388.4 58.4805 390.898 58.4805Q393.008 58.4805 394.613 57.6719Q396.23 56.8516 397.449 55.6328Q398.68 54.4023 399.594 53.2422L399.828 53.2422L399.301 58L402.758 58L408.23 32.2773L404.047 32.2773L401.703 43.3633Q400.789 47.582 399.148 50.125Q397.519 52.668 395.621 53.8281Q393.734 54.9766 392.105 54.9766Q390.333 54.9766 389.535 54.0948L389.527 54.0859Q389.495 54.0493 389.464 54.0116Q388.742 53.1322 388.742 51.6602Q388.742 50.5117 389.176 48.4492L392.633 32.2773L388.355 32.2773L384.992 47.9688Q384.805 49.0234 384.629 50.0078Q384.465 50.9922 384.465 52.0938Q384.465 54.8376 385.818 56.4373Q386.002 56.655 386.211 56.8516Q386.47 57.0916 386.754 57.2963ZM418.84 32.2773L413.368 58L417.586 58L420.036 46.4805L432.129 46.4805L429.727 58L434.004 58L439.43 32.2773L435.2 32.2773L432.903 42.9766L420.809 42.9766L423.012 32.2773L418.84 32.2773ZM324.566 54.6626Q323.772 54.8828 322.917 54.8828Q320.893 54.8828 319.56 53.9236Q319.156 53.6328 318.815 53.2539Q317.35 51.6133 317.35 48.6367Q317.35 45.0391 318.405 42.0391Q319.46 39.0391 321.405 37.2461Q322.401 36.3223 323.578 35.8714Q324.7 35.4414 325.987 35.4414Q327.909 35.4414 329.057 36.332Q329.624 36.7614 330.034 37.3083Q330.464 37.8808 330.721 38.582Q331.028 39.4163 331.148 40.2767Q331.225 40.8302 331.225 41.3945Q331.225 45.6133 330.089 48.6367Q328.964 51.6602 327.089 53.2773Q325.915 54.2882 324.566 54.6626ZM457.058 54.6626Q456.264 54.8828 455.409 54.8828Q453.385 54.8828 452.052 53.9236Q451.648 53.6328 451.307 53.2539Q449.842 51.6133 449.842 48.6367Q449.842 45.0391 450.897 42.0391Q451.952 39.0391 453.897 37.2461Q454.893 36.3223 456.07 35.8714Q457.192 35.4414 458.479 35.4414Q460.401 35.4414 461.549 36.332Q462.116 36.7614 462.526 37.3083Q462.956 37.8808 463.213 38.582Q463.52 39.4163 463.64 40.2767Q463.717 40.8302 463.717 41.3945Q463.717 45.6133 462.581 48.6367Q461.456 51.6602 459.581 53.2773Q458.407 54.2882 457.058 54.6626Z" fill="#FFFFFF" fill-opacity="1.000000" fill-rule="evenodd"/>
	</mask>
	<g mask="url(#mask26_101)">
		<g filter="url(#filter_26_102_dd)">
			<rect id="Rectangle 14" x="-50.000000" y="34.000000" width="778.954285" height="100.000000" fill="#D9D9D9" fill-opacity="0.200000"/>
			<rect id="Rectangle 14" x="-50.000000" y="34.000000" width="778.954285" height="100.000000" fill="url(#paint_linear_26_102_0)" fill-opacity="0.200000"/>
		</g>
	</g>
</svg>
